<svg height="512pt" viewBox="-9 0 512 512" width="512pt" xmlns="http://www.w3.org/2000/svg"><path d="m353.101562 256v-167.699219c0-9.699219 7.898438-17.601562 17.699219-17.699219h88.300781c19.5 0 35.296876-15.800781 35.296876-35.300781s-15.796876-35.300781-35.296876-35.300781h-282.5c-19.5 0-35.300781 15.800781-35.300781 35.300781s15.800781 35.300781 35.300781 35.300781h88.296876c9.703124 0 17.601562 7.898438 17.703124 17.699219v158.898438l-48.902343 177.5c-32.597657 20.902343-74 22.300781-108 3.699219-34-18.597657-55-54.199219-55-93 0-19.5-15.800781-35.296876-35.300781-35.296876s-35.398438 15.796876-35.398438 35.296876c0 61.203124 31.699219 118.101562 83.699219 150.203124 52 32.097657 117.101562 35 171.800781 7.597657zm0 0" fill="#f3d55b"/><path d="m416.300781 256.601562c-.601562 0-1.101562-.402343-1.101562-1 0-.601562.402343-1 1-1 .601562 0 1 .398438 1 1 0 .597657-.300781 1-.898438 1zm0 0"/><path d="m458.601562 282.5c8.898438 16.601562 13.898438 51.101562 13.898438 77.5-1 48.699219-12.199219 96.699219-32.800781 140.898438-3.5 6.800781-10.5 11.101562-18.199219 11.101562h-144c-7.601562 0-14.699219-4.199219-18.199219-11-20.699219-43.601562-31.902343-91.101562-32.902343-139.398438 0-26.101562 5-60.402343 13.902343-76.800781zm0 0" fill="#d75e72"/><path d="m431.398438 220.699219v9.199219c0 7.902343-3.5 15.402343-9.597657 20.402343-1.601562 1.300781-3.300781 2.398438-5.101562 3.398438-3.699219 1.800781-7.699219 2.699219-11.699219 2.699219h-111.101562c-4.097657 0-8.097657-.898438-11.699219-2.699219-2.597657-1.300781-4.898438-3-7-5-5-5-7.800781-11.699219-7.800781-18.699219v-9.199219c0-14.601562 11.902343-26.5 26.5-26.5h111.101562c14.601562-.101562 26.398438 11.800781 26.398438 26.398438zm0 0" fill="#802d40"/><path d="m282.199219 253.601562-.800781 1.699219c-7.898438 7.597657-12.796876 17.800781-13.898438 28.699219l-27.101562 11.699219-10 4.402343c-2.398438 1-5.097657.597657-7.097657-1.101562s-2.902343-4.300781-2.300781-6.800781c6.398438-29.300781 35.5-38.5 53.101562-41.398438l1.097657-2.300781c2 2.101562 4.402343 3.800781 7 5.101562zm0 0" fill="#f9eab0"/><path d="m327.398438 256.398438c-3 13.601562-4.699219 27.5-5.199219 41.5l-34.398438 17.300781c-1.699219.902343-3.699219 1-5.5.300781s-3.199219-2.101562-3.902343-3.898438l-11-27.601562c1.101562-10.898438 6.101562-21.101562 13.902343-28.699219l.800781-1.699219c3.597657 1.796876 7.699219 2.796876 11.699219 2.699219h33.597657zm0 0" fill="#f5efca"/><path d="m376.800781 297.800781-22.5 22.800781c-2.699219 2.597657-7 2.597657-9.601562 0l-22.5-22.800781c.5-14 2.199219-27.800781 5.199219-41.5h44.101562c3.101562 13.699219 4.800781 27.597657 5.300781 41.5zm0 0" fill="#f9eab0"/><path d="m431.5 284-10.898438 27.601562c-.703124 1.796876-2.101562 3.199219-3.902343 3.898438s-3.800781.601562-5.5-.300781l-34.300781-17.300781c-.5-14-2.199219-27.898438-5.296876-41.5h33.5c3.097657 0 6.097657-.5 9-1.597657l3.5.5c7.796876 7.597657 12.699219 17.800781 13.898438 28.699219zm0 0" fill="#f5efca"/><path d="m468.601562 300.101562-10-4.402343-27.101562-11.699219h-.101562c-1.097657-10.898438-6.097657-21.101562-13.898438-28.699219l-3.5-.5c.898438-.300781 1.800781-.699219 2.699219-1.101562 1.800781-.898438 3.5-2.097657 5.101562-3.398438l3.097657.597657c17.703124 2.902343 46.703124 12.101562 53.101562 41.402343.601562 2.5-.300781 5.199219-2.300781 6.800781-2 1.597657-4.699219 2-7.097657 1zm0 0" fill="#f9eab0"/><path d="m264.898438 388.398438c.902343 25.601562 5.5 50.902343 13.703124 75.203124"/><g fill="#fb7b76"><path d="m278.5 472.398438c-3.800781 0-7.199219-2.398438-8.398438-6-8.5-25.199219-13.300781-51.398438-14.101562-78 0-4.898438 4-8.796876 8.800781-8.796876s8.800781 4 8.800781 8.796876c.898438 24.601562 5.398438 49 13.199219 72.402343 1.5 4.597657-1 9.597657-5.601562 11.199219-.800781.300781-1.699219.398438-2.699219.398438zm0 0"/><path d="m273.699219 353.101562c0 4.859376-3.9375 8.796876-8.800781 8.796876-4.859376 0-8.796876-3.9375-8.796876-8.796876 0-4.863281 3.9375-8.800781 8.796876-8.800781 4.863281 0 8.800781 3.9375 8.800781 8.800781zm0 0"/></g></svg>